# xmcd
#
# Track frame offsets:
#	150
#	21124
#	39974
#	56994
#	81608
#	96849
#	110777
#	133273
#	151741
#	171065
#	187848
#
# Disc length: 2677 seconds
#
# Revision: 0
# Processed by: cddbd v1.5.2PL0 Copyright (c) Steve Scherf et al.
# Submitted via: EasyCDDAExtractor 9.1.3.1
#
DISCID=900a730b
DTITLE=Lady Antebellum - Need You Now
DYEAR=2010
DGENRE=Country
TTITLE0=Need You Now
TTITLE1=Our Kind Of Love
TTITLE2=American Honey
TTITLE3=Hello World
TTITLE4=Perfect Day
TTITLE5=Love This Pain
TTITLE6=When You Got A Good Thing
TTITLE7=Stars Tonight
TTITLE8=If I Knew Then
TTITLE9=Something 'Bout A Woman
TTITLE10=Ready To Love Again
EXTD=
EXTT0=
EXTT1=
EXTT2=
EXTT3=
EXTT4=
EXTT5=
EXTT6=
EXTT7=
EXTT8=
EXTT9=
EXTT10=
PLAYORDER=
